<?xml version="1.0" encoding="UTF-8" standalone="no"?>
<svg
   xmlns:dc="http://purl.org/dc/elements/1.1/"
   xmlns:cc="http://creativecommons.org/ns#"
   xmlns:rdf="http://www.w3.org/1999/02/22-rdf-syntax-ns#"
   xmlns:svg="http://www.w3.org/2000/svg"
   xmlns="http://www.w3.org/2000/svg"
   xmlns:sodipodi="http://sodipodi.sourceforge.net/DTD/sodipodi-0.dtd"
   xmlns:inkscape="http://www.inkscape.org/namespaces/inkscape"
   width="158.75331mm"
   height="22.704557mm"
   viewBox="0 0 158.75331 22.704557"
   version="1.1"
   id="svg8"
   inkscape:version="1.0.2-2 (e86c870879, 2021-01-15)"
   sodipodi:docname="dibujo.svg">
  <defs
     id="defs2" />
  <sodipodi:namedview
     id="base"
     pagecolor="#ffffff"
     bordercolor="#666666"
     borderopacity="1.0"
     inkscape:pageopacity="0.0"
     inkscape:pageshadow="2"
     inkscape:zoom="0.35"
     inkscape:cx="44.291967"
     inkscape:cy="548.62053"
     inkscape:document-units="mm"
     inkscape:current-layer="layer1"
     inkscape:document-rotation="0"
     showgrid="false"
     fit-margin-top="0"
     fit-margin-left="0"
     fit-margin-right="0"
     fit-margin-bottom="0"
     inkscape:window-width="1258"
     inkscape:window-height="728"
     inkscape:window-x="92"
     inkscape:window-y="0"
     inkscape:window-maximized="0" />
  <metadata
     id="metadata5">
    <rdf:RDF>
      <cc:Work
         rdf:about="">
        <dc:format>image/svg+xml</dc:format>
        <dc:type
           rdf:resource="http://purl.org/dc/dcmitype/StillImage" />
        <dc:title></dc:title>
      </cc:Work>
    </rdf:RDF>
  </metadata>
  <g
     inkscape:label="Capa 1"
     inkscape:groupmode="layer"
     id="layer1"
     transform="translate(-2.2662027,-3.010817)">
    <g
       id="g10"
       transform="matrix(0.33072917,0,0,-0.33072917,-3.1213755,-44.835772)">
	<g
   id="g12"
   transform="scale(0.1)">
		<path
   id="path14"
   class="st0"
   d="m 1492.5,-2117.8 -65.2,280.8 -62.8,-280.8 -141.2,-0.2 -115.9,530.3 h 145 l 51,-266.8 56.6,266.8 h 135 l 59.9,-266.6 56.2,266.6 H 1754 l -120.3,-530.1 h -141.2" />

		<path
   id="path16"
   class="st0"
   d="m 2643.2,-2118 h 149.9 v 513.7 h -149.9 c 0,0 0,-513.7 0,-513.7 z" />

		<path
   id="path18"
   class="st0"
   d="m 4083,-2118.5 h 149.9 v 513.8 H 4083 c 0,0.1 0,-513.8 0,-513.8 z" />

		<path
   id="path20"
   class="st0"
   d="m 3134.8,-1770.1 c 0,69.3 -31.3,83.3 -81.8,83.3 -57.1,0 -76.2,-26.1 -79.2,-88.4 -1.4,-26 -0.4,-29.4 -0.4,-29.4 l 161.7,-0.3 z m -161.9,-130.4 c 0,-52.5 8.6,-84.8 36.1,-98 15.4,-6.6 43.5,-11.3 69.9,-11.3 51.7,0 119.1,7.7 178.1,31 v -119.7 c -74.2,-24.1 -136.9,-31.1 -195.2,-31.1 -82.5,0 -141.9,17.5 -178.3,51.4 -46.2,42.6 -61.6,113.6 -61.6,221.8 0,96.2 9.9,160.6 44,208.7 33,47 93.5,72.1 190.4,72.1 91.3,0 145.3,-23 177.2,-67.7 34.1,-49.2 38.5,-118 38.5,-187.9 l -0.6,-69.9 -291.6,0.7 -6.9,-0.1" />

		<path
   id="path22"
   class="st0"
   d="m 2471.6,-2131.2 c -180.5,0 -229.5,70.1 -229.5,277.2 0,218 53.5,278.3 239.5,278.3 62,-0.8 117.4,-19 129.9,-25.9 v -128.6 c -32.1,14.2 -75,29.8 -127.7,30.7 -52.4,0 -80.1,-13.5 -85.6,-53 -5.6,-35.1 -6.7,-82.2 -6.7,-101.9 0,-31.8 2.2,-62.5 6.7,-92 6.7,-39.4 34.4,-59.9 86.7,-59.9 36.8,0 81.3,4.4 127,18.6 l -0.2,-126.8 c -50.5,-14.6 -97.8,-16.7 -140.1,-16.7" />

		<path
   id="path24"
   class="st0"
   d="m 2643.2,-1529.9 v -45.3 h 149.9 v 94.8 c -73.7,2.6 -135.7,-39.1 -149.9,-49.5" />

		<path
   id="path26"
   class="st0"
   d="m 4083,-1531 v -45.2 h 149.9 v 95.2 c -74.5,2.5 -136.9,-40.4 -149.9,-50" />

		<path
   id="path28"
   class="st0"
   d="m 3599.1,-1582.5 c -61.8,0 -111.5,-27.4 -145.7,-51.5 l -14.6,43.5 c -66.3,-0.6 -121.6,-36.6 -137.7,-48.3 v -479.4 h 148.6 l -0.4,355.9 c 19.9,13.1 70,34.1 96.5,34.1 43.1,0 53.9,-36.4 53.9,-70.4 l -0.2,-319.7 142.1,0.1 v 388.9 c -0.1,59.2 -36.5,146.8 -142.5,146.8" />

		<path
   id="path30"
   class="st0"
   d="m 978.1,-1772.9 c 0,69.5 -31.3,83.6 -81.8,83.6 -57.1,0 -76.2,-26.2 -79.2,-88.6 -1.4,-26.1 -0.4,-29.5 -0.4,-29.5 l 161.7,-0.3 c 0,0 -0.3,34.8 -0.3,34.8 z m -162,-130.7 c 0,-52.6 8.6,-85.1 36.1,-98.2 15.4,-6.6 43.5,-11.3 69.9,-11.3 51.7,0 119.1,7.7 178.1,31.1 v -120 c -74.2,-24.2 -136.9,-31.2 -195.3,-31.2 -82.5,0 -142,17.5 -178.3,51.5 -46.2,42.7 -61.6,113.9 -61.6,222.4 0,96.4 9.9,161 44,209.2 33,47.1 93.5,72.3 190.4,72.3 91.3,0 145.3,-23 177.2,-67.9 34.1,-49.3 38.5,-118.3 38.5,-188.4 l -0.6,-70.1 -291.6,0.7 -6.8,-0.1" />

		<path
   id="path32"
   class="st0"
   d="m 1978.6,-1986.2 c 69.5,2.5 76.3,40.6 76.1,56.9 -0.7,46.2 -45.9,61.5 -128,89.3 l -5.2,1.8 c -75.3,26.3 -146.5,51.2 -148.4,168.5 -1.3,78.9 14.7,132.5 50.3,168.7 35.5,36 91.9,54.3 167.7,54.3 52.5,0 150,-11.2 197.1,-35 0,-7 0,-131.4 -0.1,-149.3 -39.1,19.3 -116,44.7 -187.2,43.2 -49.1,-1.1 -71.8,-18.9 -71.2,-56.2 0.6,-34.9 31.3,-45.6 77.9,-61.7 26,-9 58.4,-20.2 94.9,-38.6 66.9,-35 111,-65.7 112.7,-170.1 1.1,-68.9 -16.1,-121.9 -51,-157.4 -38.3,-38.9 -99.7,-58.7 -182.5,-58.7 -91.4,0 -168.2,23.9 -208.2,39.3 0,7.8 0,128.2 0,146.4 54.1,-29.8 124.6,-44.2 205.1,-41.4" />

		<path
   id="path34"
   class="st0"
   d="m 4448.3,-2130.5 c -76.8,0 -143.8,17.5 -186.3,32.8 v 128.4 c 47.5,-26.5 113.5,-38.8 186.2,-36.4 43.3,1.4 61.1,18.3 60.7,40.1 -0.6,33.9 -40.8,44.8 -114.6,67.7 -68.2,21.8 -130.9,42.6 -132.6,138.7 -1.5,87.4 23.5,182.4 194.9,182.4 50.1,0 137.2,-10 176.7,-29.8 l -0.1,-130.1 c -29,14.8 -104,38.9 -170.3,37.6 -43.4,-0.9 -56.8,-15.5 -56.4,-39.5 0.7,-38.2 61.8,-34.9 149.3,-75.4 61.7,-29.5 99.4,-55.5 100.9,-139.6 2,-119 -68.2,-176.9 -208.4,-176.9" />

		<path
   id="path36"
   class="st0"
   d="m 3979.4,-2002 c -62.9,-1.7 -54.6,51.2 -54.8,88.3 -0.2,37.1 0.2,194.4 0.2,194.4 h 126.5 l 0.1,114.8 -126.9,-0.2 -0.3,148.3 c -79.7,1.7 -145.1,-48 -149.9,-51.7 v -84.1 l -0.1,-12.2 c 0,0 -12.1,-6.8 -18.3,-11.2 -6.2,-4.4 -9.4,-6.9 -9.4,-6.9 l 28.3,-97.6 -0.4,-248.1 c 0,-145.7 66.5,-162 145.4,-162 48.4,0 96.9,8.7 131.8,18.5 v 123.9 c -21.5,-8.7 -46.3,-14.2 -72.2,-14.2" />

		<path
   id="path38"
   class="st0"
   d="m 4890.8,-2003.9 c -62.9,-1.7 -54.6,51.2 -54.8,88.3 -0.2,37.1 0.2,194.4 0.2,194.4 h 126.5 l 0.1,114.8 -126.9,-0.2 -0.3,148.3 c -79.7,1.7 -145.1,-48 -149.9,-51.7 v -84.1 l -0.1,-12.2 c 0,0 -12.1,-6.8 -18.3,-11.2 -6.2,-4.4 -9.4,-6.9 -9.4,-6.9 l 28.3,-97.6 -0.4,-248.1 c 0,-145.7 66.5,-162 145.4,-162 48.4,0 96.9,8.7 131.8,18.5 v 123.9 c -21.4,-8.7 -46.2,-14.2 -72.2,-14.2" />

		<path
   id="path40"
   class="st0"
   d="m 486.2,-1457.2 -0.2,-349.5 -174.6,348.1 c -76.2,1.4 -139.3,-44.2 -148.5,-51.1 V -2118 h 151.5 l 0.1,332.1 173.7,-332.1 h 1.7 146 v 660.9 l -149.7,-0.1" />

	</g>

</g>
  </g>
  <style
     type="text/css"
     id="style10">
	.st0{fill:#231F20;}
</style>
</svg>
