<?xml version="1.0"?>
<svg xmlns="http://www.w3.org/2000/svg" xmlns:xlink="http://www.w3.org/1999/xlink" xmlns:svgjs="http://svgjs.com/svgjs" version="1.1" width="512" height="512" x="0" y="0" viewBox="0 0 128 128" style="enable-background:new 0 0 512 512" xml:space="preserve" class=""><g><g xmlns="http://www.w3.org/2000/svg" id="Circle_Grid" data-name="Circle Grid"><circle cx="64" cy="64" fill="#a1a1a1" r="64" data-original="#f6c863" style="" class=""/></g><g xmlns="http://www.w3.org/2000/svg" id="icon"><path d="m35.214 75.565h57.329v9.945h-57.329z" fill="#4d5160" data-original="#4d5160" style="" class=""/><path d="m41.491 74.475h44.771v24.904h-44.771z" fill="#bdbdbd" data-original="#eeefee" style="" class=""/><path d="m30.565 85.429h4.65v.081h-4.65z" fill="#ccd0d2" data-original="#ccd0d2" style="" class=""/><path d="m92.544 85.429h4.65v.081h-4.65z" fill="#ccd0d2" data-original="#ccd0d2" style="" class=""/><path d="m35.331 39.081h57.336v19.529h-57.336z" fill="#4d5160" data-original="#4d5160" style="" class=""/><path d="m42.376 28.621h43.246v19.92h-43.246z" fill="#bdbdbd" data-original="#eeefee" style="" class=""/><path d="m100.966 48h-73.932a4.033 4.033 0 0 0 -4.034 4.034v29.441a4.033 4.033 0 0 0 4.034 4.034h8.18v-9.944h57.33v9.945h8.422a4.033 4.033 0 0 0 4.034-4.035v-29.441a4.033 4.033 0 0 0 -4.034-4.034z" fill="#62667c" data-original="#62667c" style="" class=""/><g fill="#dbd8dd"><path d="m45.048 80.497h37.668v1.51h-37.668z" fill="#a3a3a3" data-original="#dbd8dd" style="" class=""/><path d="m45.048 86.333h37.668v1.51h-37.668z" fill="#a3a3a3" data-original="#dbd8dd" style="" class=""/><path d="m45.048 92.169h37.668v1.51h-37.668z" fill="#a3a3a3" data-original="#dbd8dd" style="" class=""/></g><path d="m23.001 58.861h81.997v2.648h-81.997z" fill="#4d5160" data-original="#4d5160" style="" class=""/><path d="m32 53.545a1.788 1.788 0 1 1 -1.792-1.792 1.79 1.79 0 0 1 1.792 1.792z" fill="#a19e9e" data-original="#ef5261" style="" class=""/><path d="m38.85 53.545a1.788 1.788 0 1 1 -1.792-1.792 1.79 1.79 0 0 1 1.792 1.792z" fill="#b1b1b1" data-original="#2cbfae" style="" class=""/></g></g></svg>
